<?xml version="1.0" standalone="no"?>
<!DOCTYPE svg PUBLIC "-//W3C//DTD SVG 20010904//EN"
 "http://www.w3.org/TR/2001/REC-SVG-20010904/DTD/svg10.dtd">
<svg version="1.0" xmlns="http://www.w3.org/2000/svg"
 width="478.000000pt" height="500.000000pt" viewBox="0 0 478.000000 500.000000"
 preserveAspectRatio="xMidYMid meet">
<metadata>
Created by potrace 1.16, written by Peter Selinger 2001-2019
</metadata>
<g transform="translate(0.000000,500.000000) scale(0.100000,-0.100000)"
fill="#000000" stroke="none">
<path d="M1828 4726 c-31 -6 -60 -14 -63 -18 -4 -4 -13 -4 -20 -2 -7 3 -41 0
-76 -6 -35 -7 -85 -14 -111 -16 -26 -3 -63 -11 -83 -20 -34 -14 -35 -16 -35
-69 0 -35 6 -65 16 -81 15 -22 15 -27 2 -42 -17 -19 -14 -158 4 -179 6 -8 6
-19 -1 -32 -6 -11 -11 -62 -12 -114 0 -51 -4 -98 -7 -104 -5 -8 -41 -8 -127
-1 -129 12 -870 -2 -893 -16 -9 -5 -12 -130 -12 -531 0 -468 2 -524 16 -529 9
-3 78 -6 154 -6 92 0 140 -4 142 -11 5 -16 440 -13 450 4 5 8 47 12 140 12
l133 0 3 -119 c1 -66 7 -125 12 -131 5 -6 21 -12 37 -13 56 -4 93 -23 100 -49
3 -15 3 -100 0 -190 -5 -106 -3 -163 3 -163 6 0 10 -7 10 -15 0 -8 -4 -15 -9
-15 -12 0 -11 -339 1 -346 4 -3 4 -14 -2 -24 -15 -28 -13 -453 2 -468 9 -9 9
-15 0 -24 -9 -9 -12 -77 -12 -244 0 -129 -4 -235 -9 -238 -5 -4 -7 2 -4 13 3
13 -2 20 -19 26 -13 4 -26 7 -29 7 -3 -1 -5 23 -5 53 1 51 0 54 -26 57 -17 3
-29 -1 -33 -10 -3 -8 -12 -11 -20 -8 -8 3 -15 1 -15 -4 0 -6 7 -10 15 -10 14
0 16 -24 15 -175 -1 -111 -5 -173 -11 -169 -6 3 -8 28 -4 57 3 29 1 75 -4 102
-8 48 -9 48 -10 13 -1 -25 -6 -38 -14 -38 -12 0 -22 30 -41 124 -1 5 -10 1
-19 -8 -9 -10 -14 -22 -11 -28 5 -7 2 -8 -7 -3 -11 6 -12 5 -1 -6 17 -18 15
-59 -2 -59 -8 0 -17 -10 -19 -22 -2 -13 -5 5 -6 39 0 34 3 63 7 65 5 2 6 30 1
63 -4 33 -7 393 -8 799 -1 407 -4 742 -6 745 -3 2 -5 -454 -5 -1015 0 -560 0
-1049 0 -1085 0 -44 -4 -68 -12 -72 -10 -3 -13 163 -13 812 0 449 2 969 3
1156 l3 340 -63 9 c-71 10 -78 13 -58 26 11 7 4 10 -23 10 -35 0 -38 -2 -32
-21 7 -21 5 -22 -40 -16 -29 3 -52 11 -57 21 -8 13 -31 16 -146 16 -85 0 -142
-4 -149 -11 -6 -6 -94 -14 -209 -20 -171 -8 -201 -12 -212 -27 -10 -14 -13
-196 -11 -940 1 -507 5 -925 10 -927 4 -3 10 -1 14 5 8 13 45 13 45 0 0 -5 -8
-10 -17 -10 -43 -1 -46 -11 -50 -182 -4 -150 -3 -166 15 -187 18 -24 23 -24
495 -52 l476 -28 144 32 c142 32 177 46 177 73 0 23 16 24 86 10 38 -8 72 -12
77 -9 4 2 14 0 21 -6 23 -19 157 -24 361 -12 110 6 418 23 685 36 688 36 1488
83 1506 89 6 3 11 15 10 28 -1 18 -6 23 -26 21 -25 -3 -25 -3 -2 7 27 12 39
37 24 52 -9 9 -17 6 -33 -8 -16 -14 -21 -15 -17 -4 2 8 17 21 33 29 26 12 27
15 11 26 -12 9 -13 14 -4 18 12 4 14 38 9 141 -1 15 -7 17 -38 14 -21 -3 -47
-8 -58 -12 -20 -8 -20 -7 -1 8 11 9 37 16 58 16 27 0 38 4 38 15 0 8 -9 15
-19 15 -11 0 -31 11 -45 24 -37 34 -32 42 7 12 38 -29 57 -33 57 -11 0 8 -8
15 -18 15 -10 0 -23 5 -30 12 -16 16 -16 33 1 21 6 -6 20 -13 30 -16 13 -5 17
-1 17 18 0 18 -5 25 -20 25 -11 0 -20 5 -20 10 0 6 9 10 20 10 11 0 20 5 20
10 0 6 -13 10 -30 10 -16 0 -30 5 -30 11 0 7 12 10 29 7 l30 -4 0 88 c0 48 -5
88 -10 88 -5 0 -9 -8 -10 -17 0 -14 -2 -13 -9 5 -5 12 -16 22 -25 22 -8 0 -15
4 -15 10 0 5 7 7 15 4 11 -4 15 1 16 17 0 24 0 24 9 3 17 -42 30 -37 30 10 0
33 -6 52 -20 66 -26 26 -26 50 1 50 34 0 15 24 -24 31 -37 6 -77 33 -77 52 0
6 11 1 24 -12 13 -12 40 -24 60 -28 35 -5 36 -5 36 24 0 30 -26 63 -48 63 -7
0 -12 5 -12 10 0 13 27 13 35 0 9 -15 25 -12 25 5 0 15 -40 30 -74 27 -14 -1
-16 2 -8 10 8 8 21 9 47 1 32 -10 35 -9 35 8 0 14 -7 19 -29 19 -17 0 -32 4
-36 9 -3 6 9 7 30 4 28 -4 35 -2 35 11 0 9 -8 16 -19 16 -11 0 -23 5 -26 10
-4 7 2 9 19 4 23 -5 26 -3 26 21 0 24 -3 27 -27 21 -27 -6 -27 -6 -9 9 11 8
23 15 28 15 4 0 8 5 8 11 0 11 -24 9 -65 -6 -20 -7 -20 -6 -1 9 11 9 30 16 43
16 16 0 23 6 23 20 0 21 -15 27 -25 10 -3 -5 -21 -10 -38 -9 l-32 1 32 8 c36
8 63 27 63 42 0 6 -8 7 -17 3 -37 -15 -53 -17 -53 -6 0 6 8 11 18 11 27 0 52
32 52 65 0 26 -2 27 -36 22 -20 -4 -48 -17 -62 -29 l-25 -23 12 22 c15 29 42
43 80 43 21 0 31 5 31 15 0 9 -9 15 -24 15 -19 0 -23 4 -19 19 3 11 14 27 24
37 24 22 27 94 4 94 -8 0 -15 -6 -15 -14 0 -8 -5 -18 -11 -22 -8 -4 -9 1 -4
16 6 19 4 21 -17 15 l-23 -6 21 18 c12 10 27 27 33 38 12 19 12 19 8 -2 -4
-15 0 -23 9 -23 16 0 20 65 4 75 -6 4 -6 15 0 30 5 14 9 43 7 65 -2 34 -5 40
-24 40 -13 0 -23 5 -23 10 0 6 8 10 19 10 10 0 21 9 24 19 7 28 -3 33 -31 15
-13 -8 -26 -13 -29 -10 -10 9 18 36 38 36 21 0 34 16 19 25 -12 7 -80 -32 -80
-46 0 -5 -4 -9 -10 -9 -5 0 -10 4 -10 10 0 14 81 71 91 64 5 -3 9 1 9 9 0 10
-8 13 -24 10 -30 -6 -98 15 -90 28 3 5 13 5 24 -1 10 -5 35 -10 54 -10 l36 0
0 61 0 61 -42 -4 c-24 -3 -52 -8 -63 -13 -19 -7 -19 -7 -3 10 10 11 32 18 62
19 29 1 46 6 46 14 0 6 -9 12 -19 12 -19 0 -86 49 -78 57 3 2 22 -7 42 -22 43
-29 55 -31 55 -10 0 8 -8 15 -19 15 -20 0 -48 27 -38 36 3 3 17 -2 31 -11 26
-17 26 -17 26 9 0 19 -5 26 -20 26 -11 0 -20 5 -20 10 0 6 9 10 20 10 11 0 20
5 20 10 0 6 -13 10 -30 10 -16 0 -30 5 -30 11 0 7 12 10 29 7 l29 -4 0 95 c-1
64 -3 86 -8 66 -7 -28 -8 -29 -15 -8 -4 12 -16 25 -26 28 -10 4 -19 11 -19 16
0 6 9 7 21 4 18 -6 20 -4 14 17 l-6 23 20 -25 21 -25 0 43 c0 28 -7 53 -21 71
-22 30 -19 54 6 44 8 -3 15 0 15 5 0 6 -16 14 -35 18 -35 6 -92 50 -81 61 3 4
16 -3 29 -15 13 -12 37 -25 55 -28 31 -6 32 -6 32 29 0 30 -5 37 -30 49 -16 7
-30 16 -30 20 0 12 35 9 48 -4 9 -9 12 -8 12 4 0 18 -20 28 -56 28 -13 0 -24
5 -24 11 0 8 14 10 40 6 30 -4 40 -2 40 9 0 8 -10 14 -22 14 -27 0 -55 16 -46
25 3 4 15 2 26 -4 28 -15 42 -14 42 4 0 8 -3 14 -7 14 -19 -3 -33 2 -33 12 0
6 9 9 20 6 16 -4 20 0 20 18 0 18 -4 22 -20 18 -11 -3 -20 -1 -20 5 0 6 9 14
20 17 11 3 20 11 20 16 0 9 -17 7 -59 -9 -9 -3 -12 0 -9 9 2 8 19 15 36 17 19
2 32 9 32 17 0 10 -11 12 -40 8 -24 -3 -40 -2 -40 4 0 6 18 13 40 17 28 4 40
11 40 23 0 13 -3 14 -12 5 -13 -13 -48 -16 -48 -4 0 4 14 13 30 20 25 12 30
19 30 49 0 35 -1 35 -32 29 -18 -3 -42 -16 -55 -28 -32 -30 -41 -15 -10 16 14
13 41 28 61 31 20 4 36 12 36 17 0 6 -9 8 -20 5 -15 -4 -20 0 -20 14 0 10 9
28 20 39 14 14 20 33 20 63 l0 42 -20 -25 c-16 -20 -20 -22 -20 -7 0 9 -7 17
-15 17 -21 0 -19 13 5 28 11 7 20 19 20 27 0 8 5 15 11 15 6 0 9 -9 6 -20 -3
-11 -2 -20 3 -20 4 0 8 38 8 85 l-1 85 -33 0 c-19 0 -34 5 -34 10 0 6 16 10
35 10 19 0 35 5 35 10 0 6 -12 10 -26 10 -14 0 -23 4 -19 10 3 6 15 10 26 10
14 0 19 7 19 25 0 29 -7 31 -38 9 -12 -8 -22 -11 -22 -5 0 13 41 41 52 35 4
-3 8 2 8 10 0 9 -3 16 -6 16 -11 0 -50 -23 -71 -43 -13 -11 -23 -16 -23 -10 0
17 59 63 81 63 10 0 19 6 19 13 0 9 -10 12 -30 9 -33 -5 -90 14 -90 30 0 6 7
7 18 2 9 -4 35 -8 57 -8 l40 -1 3 52 c3 49 2 53 -24 59 -14 4 -41 2 -60 -4
-19 -5 -34 -7 -34 -2 0 15 60 32 90 26 35 -6 41 9 8 19 -26 8 -78 54 -78 69 0
5 12 -2 28 -16 36 -34 72 -45 72 -23 0 9 -4 14 -8 11 -11 -6 -52 22 -52 35 0
6 10 3 22 -5 31 -22 38 -20 38 9 0 18 -5 25 -19 25 -11 0 -23 5 -27 11 -5 8 1
10 20 7 18 -4 26 -1 26 8 0 9 -12 14 -35 14 -19 0 -35 5 -35 11 0 7 14 10 35
7 22 -2 35 0 35 8 0 13 -130 24 -286 24 -94 0 -103 -2 -109 -20 -8 -27 -23
-25 -27 3 -3 21 -8 22 -138 28 -173 9 -445 17 -730 24 -178 4 -219 2 -197 -7
30 -13 36 -28 12 -28 -9 0 -26 11 -38 23 -21 23 -28 24 -242 31 -275 8 -496
15 -600 20 -44 2 -106 -2 -137 -8z m1499 -495 c336 -9 614 -19 617 -22 3 -3 6
-729 6 -1615 l1 -1609 -128 -7 c-70 -3 -180 -9 -243 -12 -63 -3 -315 -15 -560
-26 -245 -11 -502 -23 -572 -26 l-127 -7 -3 204 c-2 112 -4 497 -6 854 -1 358
-5 1013 -9 1456 -3 444 -3 814 0 823 6 14 29 15 209 10 112 -4 478 -14 815
-23z m-2064 -1568 c18 -11 4 -23 -29 -23 -23 0 -33 -4 -28 -11 5 -8 1 -8 -14
0 -11 6 -31 11 -43 11 -17 0 -19 -3 -10 -14 9 -11 8 -15 -5 -20 -30 -11 -63
-6 -76 13 -12 17 -34 19 -291 24 -152 3 -277 2 -277 -3 0 -5 -7 -15 -15 -23
-19 -20 -71 -7 -69 16 2 14 -8 17 -52 17 -46 0 -52 -2 -47 -17 4 -11 3 -14 -5
-9 -16 9 -15 29 1 45 10 10 103 12 482 6 259 -4 473 -9 478 -12z m-283 -980
c62 -167 -35 -334 -195 -332 -54 0 -46 7 30 28 63 16 134 67 151 106 20 49 18
119 -6 165 -11 22 -23 40 -26 40 -4 0 -4 -46 -1 -102 4 -67 3 -89 -3 -63 -4
22 -11 90 -15 150 l-7 110 26 -24 c14 -13 35 -48 46 -78z m-280 -22 c17 -32
12 -111 -10 -156 -21 -44 -86 -89 -118 -83 -13 3 -10 8 15 21 43 23 46 30 27
77 -30 74 -2 160 52 160 13 0 28 -9 34 -19z m174 9 c30 -11 34 -33 8 -52 -27
-20 -52 -60 -52 -84 0 -17 -5 -21 -19 -17 -15 4 -20 -4 -29 -39 -6 -24 -23
-55 -37 -68 -24 -22 -36 -25 -113 -27 l-87 -2 75 12 c87 15 114 29 135 73 19
41 19 46 -2 42 -12 -2 -19 5 -21 20 -5 33 15 54 38 42 28 -15 30 -13 30 34 0
76 15 89 74 66z"/>
<path d="M3300 2721 c17 -13 28 -16 36 -10 16 13 23 -54 21 -181 -1 -52 -3
-83 -5 -67 -2 15 -8 27 -13 27 -12 0 -11 -11 6 -60 23 -65 12 -126 -20 -114
-15 6 -10 30 12 55 11 14 11 18 -2 29 -8 7 -15 9 -15 5 0 -4 -7 -2 -15 5 -17
14 -14 62 6 86 12 15 12 17 -1 12 -8 -3 -27 3 -41 13 -33 23 -46 13 -20 -15
21 -24 32 -69 20 -87 -10 -17 7 -49 26 -49 18 0 20 -21 4 -37 -8 -8 -5 -13 10
-18 12 -3 25 -14 30 -23 14 -27 23 -189 11 -197 -9 -6 -15 29 -11 63 2 15 -17
42 -30 42 -4 0 -7 -9 -6 -19 1 -12 6 -17 17 -13 12 4 12 2 -2 -15 -20 -22 -23
-49 -8 -56 6 -3 5 -4 -2 -3 -6 1 -16 11 -22 22 -6 10 -15 22 -19 25 -5 3 -1 9
8 13 12 4 15 13 11 30 -7 28 9 38 37 24 13 -6 17 -5 17 7 0 13 -11 15 -62 13
-34 -2 -63 -8 -65 -14 -2 -7 6 -10 22 -6 24 4 25 3 15 -23 -6 -15 -8 -31 -4
-36 3 -5 0 -9 -5 -9 -15 0 -61 75 -61 99 0 12 12 24 30 33 32 14 40 28 14 28
-39 0 -89 -90 -61 -111 4 -3 -2 -28 -13 -55 -21 -48 -22 -49 -34 -25 -7 13
-16 20 -19 14 -3 -5 -2 -15 4 -23 15 -26 10 -31 -11 -10 -11 11 -32 20 -46 20
l-27 0 26 20 c15 12 32 18 44 14 15 -6 16 -4 6 7 -16 16 -17 33 -2 23 6 -3 17
-20 25 -38 7 -17 13 -25 14 -18 0 7 -7 27 -16 44 -14 26 -14 30 -1 25 10 -4
13 0 10 12 -2 10 2 25 10 33 9 8 23 32 32 54 17 40 33 56 48 47 5 -3 3 -9 -4
-14 -11 -7 -10 -9 4 -9 20 0 20 -1 6 39 -11 31 -11 31 -83 31 -43 0 -77 5 -84
12 -8 8 -12 8 -12 1 0 -17 26 -34 43 -27 12 4 21 -4 34 -31 l17 -36 18 23 c10
13 18 29 18 36 0 16 22 11 28 -6 2 -7 -3 -12 -12 -12 -8 0 -23 -14 -32 -32
l-16 -31 -20 31 c-11 18 -27 32 -36 31 -11 0 -13 -2 -4 -6 12 -5 42 -65 42
-86 0 -6 -10 -1 -23 11 -14 13 -36 22 -55 22 -36 0 -39 -6 -16 -38 l15 -22
-60 0 c-55 0 -61 2 -61 21 0 27 16 55 35 63 13 4 12 0 -4 -20 -24 -31 -27 -46
-7 -38 8 3 20 19 26 35 7 16 18 29 24 29 6 0 0 9 -14 20 -21 17 -23 21 -10 30
8 5 19 11 24 13 6 2 9 26 7 53 -1 39 3 56 19 74 15 18 18 26 9 29 -7 2 -15 -1
-17 -7 -2 -7 -10 -12 -18 -12 -8 0 -14 -5 -14 -11 0 -5 -4 -7 -10 -4 -5 3 -10
1 -10 -4 0 -6 4 -11 9 -11 6 0 10 -8 10 -17 -1 -10 3 -29 7 -42 5 -17 4 -22
-4 -17 -7 4 -15 0 -18 -8 -3 -9 -10 -16 -16 -16 -5 0 -6 5 -3 10 3 6 1 10 -5
10 -6 0 -8 6 -4 13 4 6 3 8 -1 4 -5 -4 -14 2 -21 14 -9 17 -11 -11 -10 -134 1
-123 3 -151 12 -134 7 11 10 26 8 32 -3 6 7 10 23 9 55 -2 58 -3 45 -16 -17
-17 -15 -38 3 -38 12 0 11 -6 -4 -34 l-19 -34 37 5 c41 6 81 -10 81 -31 0 -21
28 -27 39 -8 9 16 10 16 16 0 5 -14 11 -15 25 -8 10 6 27 10 37 10 15 0 13 -3
-6 -13 -24 -12 -52 -76 -49 -112 2 -39 -2 -65 -12 -65 -5 0 -10 10 -11 23 l0
22 -9 -22 c-5 -13 -14 -23 -20 -23 -15 0 -12 14 8 36 11 12 17 37 18 69 1 28
-2 42 -5 32 -6 -17 -8 -16 -19 7 -6 14 -17 26 -23 26 -8 0 -7 -6 3 -17 9 -10
19 -28 22 -40 10 -33 -22 -93 -58 -109 -28 -12 -17 -13 109 -13 77 0 149 4
160 9 14 7 9 8 -18 4 -20 -4 -50 -1 -65 5 -78 33 -79 161 -1 161 19 0 29 5 29
15 0 21 11 19 44 -10 35 -30 51 -32 36 -5 -23 43 -80 57 -134 35 -14 -6 -17
-5 -12 4 24 38 104 32 142 -10 24 -26 29 -115 9 -145 -19 -30 -19 -35 3 -27
15 6 15 5 3 -10 -12 -15 -11 -17 3 -17 15 0 16 38 14 438 l-3 437 -45 3 -45 2
25 -19z"/>
</g>
</svg>
